{
  "accessors": [
    {
      "bufferView": 2,
      "componentType": 5126,
      "count": 68,
      "max": [
        4.8419713973999023,
        4.0625839233398438,
        6.9145216941833496
      ],
      "min": [
        -4.8419713973999023,
        -0.17920368909835815,
        -7.217073917388916
      ],
      "type": "VEC3"
    },
    {
      "bufferView": 2,
      "byteOffset": 816,
      "componentType": 5126,
      "count": 68,
      "max": [
        1,
        1,
        1
      ],
      "min": [
        -1,
        -1,
        -1
      ],
      "type": "VEC3"
    },
    {
      "bufferView": 3,
      "componentType": 5126,
      "count": 68,
      "max": [
        1,
        1,
        0.0017324659274891019,
        1
      ],
      "min": [
        -0.99999856948852539,
        -1,
        -0.0017325029475614429,
        1
      ],
      "type": "VEC4"
    },
    {
      "bufferView": 1,
      "componentType": 5126,
      "count": 68,
      "max": [
        0.88157188892364502,
        0.56948113441467285
      ],
      "min": [
        0.015625,
        0.015625
      ],
      "type": "VEC2"
    },
    {
      "bufferView": 0,
      "componentType": 5125,
      "count": 108,
      "max": [
        67
      ],
      "min": [
        0
      ],
      "type": "SCALAR"
    },
    {
      "bufferView": 2,
      "byteOffset": 1632,
      "componentType": 5126,
      "count": 48,
      "max": [
        4.6459789276123047,
        2.0778975486755371,
        6.4525041580200195
      ],
      "min": [
        -4.6459789276123047,
        1.3070095777511597,
        -7.0563945770263672
      ],
      "type": "VEC3"
    },
    {
      "bufferView": 2,
      "byteOffset": 2208,
      "componentType": 5126,
      "count": 48,
      "max": [
        0.99998688697814941,
        0.99995893239974976,
        0.99997168779373169
      ],
      "min": [
        -0.99998688697814941,
        0,
        -0.99997168779373169
      ],
      "type": "VEC3"
    },
    {
      "bufferView": 3,
      "byteOffset": 1088,
      "componentType": 5126,
      "count": 48,
      "max": [
        -3.1394613415614003e-06,
        0.99999988079071045,
        0.70541352033615112,
        1
      ],
      "min": [
        -0.99994134902954102,
        -0.99999988079071045,
        -0.70693105459213257,
        1
      ],
      "type": "VEC4"
    },
    {
      "bufferView": 1,
      "byteOffset": 544,
      "componentType": 5126,
      "count": 48,
      "max": [
        0.32072016596794128,
        0.984375
      ],
      "min": [
        0.015625,
        0.55813032388687134
      ],
      "type": "VEC2"
    },
    {
      "bufferView": 0,
      "byteOffset": 432,
      "componentType": 5125,
      "count": 198,
      "max": [
        47
      ],
      "min": [
        0
      ],
      "type": "SCALAR"
    },
    {
      "bufferView": 2,
      "byteOffset": 2784,
      "componentType": 5126,
      "count": 77,
      "max": [
        -0.30211752653121948,
        2.7254364490509033,
        6.3038043975830078
      ],
      "min": [
        -3.7468869686126709,
        2.0122978687286377,
        4.060666561126709
      ],
      "type": "VEC3"
    },
    {
      "bufferView": 2,
      "byteOffset": 3708,
      "componentType": 5126,
      "count": 77,
      "max": [
        0.95115888118743896,
        1,
        0.98199307918548584
      ],
      "min": [
        -0.95115923881530762,
        -1,
        -0.98199355602264404
      ],
      "type": "VEC3"
    },
    {
      "bufferView": 3,
      "byteOffset": 1856,
      "componentType": 5126,
      "count": 77,
      "max": [
        0.239938884973526,
        0.98219126462936401,
        0.99999934434890747,
        1
      ],
      "min": [
        -0.1822798103094101,
        -0.98199230432510376,
        -0.99999964237213135,
        1
      ],
      "type": "VEC4"
    },
    {
      "bufferView": 1,
      "byteOffset": 928,
      "componentType": 5126,
      "count": 77,
      "max": [
        0.51599204540252686,
        0.89868909120559692
      ],
      "min": [
        0.37312784790992737,
        0.76569658517837524
      ],
      "type": "VEC2"
    },
    {
      "bufferView": 0,
      "byteOffset": 1224,
      "componentType": 5125,
      "count": 240,
      "max": [
        76
      ],
      "min": [
        0
      ],
      "type": "SCALAR"
    },
    {
      "bufferView": 2,
      "byteOffset": 4632,
      "componentType": 5126,
      "count": 78,
      "max": [
        3.6238927841186523,
        2.7254364490509033,
        6.3038043975830078
      ],
      "min": [
        0.1791234016418457,
        2.0122978687286377,
        4.060666561126709
      ],
      "type": "VEC3"
    },
    {
      "bufferView": 2,
      "byteOffset": 5568,
      "componentType": 5126,
      "count": 78,
      "max": [
        0.95115852355957031,
        1,
        0.98199307918548584
      ],
      "min": [
        -0.95115906000137329,
        -1,
        -0.98199355602264404
      ],
      "type": "VEC3"
    },
    {
      "bufferView": 3,
      "byteOffset": 3088,
      "componentType": 5126,
      "count": 78,
      "max": [
        0.25700375437736511,
        0.98219466209411621,
        0.99999028444290161,
        1
      ],
      "min": [
        -0.21264442801475525,
        -0.98198676109313965,
        -0.99998009204864502,
        1
      ],
      "type": "VEC4"
    },
    {
      "bufferView": 1,
      "byteOffset": 1544,
      "componentType": 5126,
      "count": 78,
      "max": [
        0.52451908588409424,
        0.73734718561172485
      ],
      "min": [
        0.38113558292388916,
        0.60431385040283203
      ],
      "type": "VEC2"
    },
    {
      "bufferView": 0,
      "byteOffset": 2184,
      "componentType": 5125,
      "count": 240,
      "max": [
        77
      ],
      "min": [
        0
      ],
      "type": "SCALAR"
    },
    {
      "bufferView": 2,
      "byteOffset": 6504,
      "componentType": 5126,
      "count": 22,
      "max": [
        5.0044136047363281,
        2.1447131633758545,
        1.8433520793914795
      ],
      "min": [
        -5.0044136047363281,
        0.68719792366027832,
        -7.3524322509765625
      ],
      "type": "VEC3"
    },
    {
      "bufferView": 2,
      "byteOffset": 6768,
      "componentType": 5126,
      "count": 22,
      "max": [
        0.99016791582107544,
        0.99986153841018677,
        0.0049996781162917614
      ],
      "min": [
        -0.98973149061203003,
        0.06431947648525238,
        -0.99755299091339111
      ],
      "type": "VEC3"
    },
    {
      "bufferView": 3,
      "byteOffset": 4336,
      "componentType": 5126,
      "count": 22,
      "max": [
        -0.13981477916240692,
        0.9901699423789978,
        0.51866042613983154,
        1
      ],
      "min": [
        -0.99985224008560181,
        -0.98962610960006714,
        -0.51420873403549194,
        1
      ],
      "type": "VEC4"
    },
    {
      "bufferView": 1,
      "byteOffset": 2168,
      "componentType": 5126,
      "count": 22,
      "max": [
        0.93340438604354858,
        0.94326436519622803
      ],
      "min": [
        0.57931244373321533,
        0.63949471712112427
      ],
      "type": "VEC2"
    },
    {
      "bufferView": 0,
      "byteOffset": 3144,
      "componentType": 5125,
      "count": 72,
      "max": [
        21
      ],
      "min": [
        0
      ],
      "type": "SCALAR"
    }
  ],
  "asset": {
    "extras": {
      "author": "Pixel-bit (https://sketchfab.com/Pixel-bit)",
      "license": "CC-BY-4.0 (http://creativecommons.org/licenses/by/4.0/)",
      "source": "https://sketchfab.com/models/a4b811dcf6c14c9d91eac487915f40a6",
      "title": "Bed - Household Props Challenge - Day 18"
    },
    "generator": "Sketchfab-3.22.2",
    "version": "2.0"
  },
  "bufferViews": [
    {
      "buffer": 0,
      "byteLength": 3432,
      "byteOffset": 0,
      "name": "floatBufferViews",
      "target": 34963
    },
    {
      "buffer": 0,
      "byteLength": 2344,
      "byteOffset": 3432,
      "byteStride": 8,
      "name": "floatBufferViews",
      "target": 34962
    },
    {
      "buffer": 0,
      "byteLength": 7032,
      "byteOffset": 5776,
      "byteStride": 12,
      "name": "floatBufferViews",
      "target": 34962
    },
    {
      "buffer": 0,
      "byteLength": 4688,
      "byteOffset": 12808,
      "byteStride": 16,
      "name": "floatBufferViews",
      "target": 34962
    }
  ],
  "buffers": [
    {
      "byteLength": 17496,
      "uri": "scene.bin"
    }
  ],
  "images": [
    {
      "uri": "textures/lambert1_baseColor.png"
    },
    {
      "uri": "textures/lambert1_metallicRoughness.png"
    }
  ],
  "materials": [
    {
      "doubleSided": true,
      "name": "lambert1",
      "occlusionTexture": {
        "index": 1,
        "strength": 1,
        "texCoord": 0
      },
      "pbrMetallicRoughness": {
        "baseColorFactor": [
          1,
          1,
          1,
          1
        ],
        "baseColorTexture": {
          "index": 0,
          "texCoord": 0
        },
        "metallicFactor": 0,
        "roughnessFactor": 1
      }
    }
  ],
  "meshes": [
    {
      "name": "base_low_lambert1_0",
      "primitives": [
        {
          "attributes": {
            "NORMAL": 1,
            "POSITION": 0,
            "TANGENT": 2,
            "TEXCOORD_0": 3
          },
          "indices": 4,
          "material": 0,
          "mode": 4
        }
      ]
    },
    {
      "name": "mattress_low_lambert1_0",
      "primitives": [
        {
          "attributes": {
            "NORMAL": 6,
            "POSITION": 5,
            "TANGENT": 7,
            "TEXCOORD_0": 8
          },
          "indices": 9,
          "material": 0,
          "mode": 4
        }
      ]
    },
    {
      "name": "rcushion_low_lambert1_0",
      "primitives": [
        {
          "attributes": {
            "NORMAL": 11,
            "POSITION": 10,
            "TANGENT": 12,
            "TEXCOORD_0": 13
          },
          "indices": 14,
          "material": 0,
          "mode": 4
        }
      ]
    },
    {
      "name": "lcushion_low_lambert1_0",
      "primitives": [
        {
          "attributes": {
            "NORMAL": 16,
            "POSITION": 15,
            "TANGENT": 17,
            "TEXCOORD_0": 18
          },
          "indices": 19,
          "material": 0,
          "mode": 4
        }
      ]
    },
    {
      "name": "bedsheet_low_lambert1_0",
      "primitives": [
        {
          "attributes": {
            "NORMAL": 21,
            "POSITION": 20,
            "TANGENT": 22,
            "TEXCOORD_0": 23
          },
          "indices": 24,
          "material": 0,
          "mode": 4
        }
      ]
    }
  ],
  "nodes": [
    {
      "children": [
        1
      ],
      "name": "RootNode (gltf orientation matrix)",
      "rotation": [
        -0.70710678118654746,
        -0,
        -0,
        0.70710678118654757
      ]
    },
    {
      "children": [
        2
      ],
      "name": "RootNode (model correction matrix)"
    },
    {
      "children": [
        3
      ],
      "matrix": [
        1,
        0,
        0,
        0,
        0,
        0,
        1,
        0,
        0,
        -1,
        0,
        0,
        0,
        0,
        0,
        1
      ],
      "name": "2a8b9c3f28e94863adb057fdab40642b.fbx"
    },
    {
      "children": [
        4,
        6,
        8,
        10,
        12
      ],
      "name": "RootNode"
    },
    {
      "children": [
        5
      ],
      "name": "base_low"
    },
    {
      "mesh": 0,
      "name": "base_low_lambert1_0"
    },
    {
      "children": [
        7
      ],
      "matrix": [
        1,
        0,
        0,
        0,
        0,
        1,
        0,
        0,
        0,
        0,
        1,
        0,
        0,
        -0.1391855925321579,
        0,
        1
      ],
      "name": "mattress_low"
    },
    {
      "mesh": 1,
      "name": "mattress_low_lambert1_0"
    },
    {
      "children": [
        9
      ],
      "matrix": [
        1,
        0,
        0,
        0,
        0,
        1,
        0,
        0,
        0,
        0,
        1,
        0,
        0,
        -0.1391855925321579,
        0,
        1
      ],
      "name": "rcushion_low"
    },
    {
      "mesh": 2,
      "name": "rcushion_low_lambert1_0"
    },
    {
      "children": [
        11
      ],
      "matrix": [
        1,
        0,
        0,
        0,
        0,
        1,
        0,
        0,
        0,
        0,
        1,
        0,
        0,
        -0.1391855925321579,
        0,
        1
      ],
      "name": "lcushion_low"
    },
    {
      "mesh": 3,
      "name": "lcushion_low_lambert1_0"
    },
    {
      "children": [
        13
      ],
      "matrix": [
        1,
        0,
        0,
        0,
        0,
        1,
        0,
        0,
        0,
        0,
        1,
        0,
        0,
        -0.1391855925321579,
        0,
        1
      ],
      "name": "bedsheet_low"
    },
    {
      "mesh": 4,
      "name": "bedsheet_low_lambert1_0"
    }
  ],
  "samplers": [
    {
      "magFilter": 9729,
      "minFilter": 9987,
      "wrapS": 10497,
      "wrapT": 10497
    }
  ],
  "scene": 0,
  "scenes": [
    {
      "name": "OSG_Scene",
      "nodes": [
        0
      ]
    }
  ],
  "textures": [
    {
      "sampler": 0,
      "source": 0
    },
    {
      "sampler": 0,
      "source": 1
    }
  ]
}

