{
  "accessors": [
    {
      "bufferView": 1,
      "componentType": 5126,
      "count": 23530,
      "max": [
        1.023110032081604,
        1.0219500064849854,
        76.710563659667969
      ],
      "min": [
        -1.0219500064849854,
        -1.0346900224685669,
        -106.31661224365234
      ],
      "type": "VEC3"
    },
    {
      "bufferView": 1,
      "byteOffset": 282360,
      "componentType": 5126,
      "count": 23530,
      "max": [
        1,
        1,
        1
      ],
      "min": [
        -1,
        -1,
        -1
      ],
      "type": "VEC3"
    },
    {
      "bufferView": 2,
      "componentType": 5126,
      "count": 23530,
      "max": [
        0.99909085035324097,
        0,
        0.09438236802816391,
        1
      ],
      "min": [
        0,
        -0.99909186363220215,
        0,
        -1
      ],
      "type": "VEC4"
    },
    {
      "bufferView": 0,
      "componentType": 5125,
      "count": 62832,
      "max": [
        23529
      ],
      "min": [
        0
      ],
      "type": "SCALAR"
    }
  ],
  "asset": {
    "extras": {
      "author": "daniel132 (https://sketchfab.com/daniel132)",
      "license": "CC-BY-4.0 (http://creativecommons.org/licenses/by/4.0/)",
      "source": "https://sketchfab.com/models/141bf783f3c548e0aff19094a9b113c8",
      "title": "3d Big Ben"
    },
    "generator": "Sketchfab-3.20.7",
    "version": "2.0"
  },
  "bufferViews": [
    {
      "buffer": 0,
      "byteLength": 251328,
      "byteOffset": 0,
      "name": "floatBufferViews",
      "target": 34963
    },
    {
      "buffer": 0,
      "byteLength": 564720,
      "byteOffset": 251328,
      "byteStride": 12,
      "name": "floatBufferViews",
      "target": 34962
    },
    {
      "buffer": 0,
      "byteLength": 376480,
      "byteOffset": 816048,
      "byteStride": 16,
      "name": "floatBufferViews",
      "target": 34962
    }
  ],
  "buffers": [
    {
      "byteLength": 1192528,
      "uri": "scene.bin"
    }
  ],
  "extensionsRequired": [
    "KHR_materials_pbrSpecularGlossiness"
  ],
  "extensionsUsed": [
    "KHR_materials_pbrSpecularGlossiness"
  ],
  "materials": [
    {
      "doubleSided": true,
      "emissiveFactor": [
        0,
        0,
        0
      ],
      "extensions": {
        "KHR_materials_pbrSpecularGlossiness": {
          "diffuseFactor": [
            0.80000001190000003,
            0.80000001190000003,
            0.80000001190000003,
            1
          ],
          "glossinessFactor": 1,
          "specularFactor": [
            1,
            1,
            1
          ]
        }
      },
      "name": "Material.001"
    }
  ],
  "meshes": [
    {
      "name": "Cube",
      "primitives": [
        {
          "attributes": {
            "NORMAL": 1,
            "POSITION": 0,
            "TANGENT": 2
          },
          "indices": 3,
          "material": 0,
          "mode": 4
        }
      ]
    }
  ],
  "nodes": [
    {
      "children": [
        1
      ],
      "name": "RootNode (gltf orientation matrix)",
      "rotation": [
        -0.70710678118654746,
        -0,
        -0,
        0.70710678118654757
      ]
    },
    {
      "children": [
        2
      ],
      "name": "RootNode (model correction matrix)"
    },
    {
      "children": [
        3,
        5,
        7
      ],
      "name": "Root"
    },
    {
      "children": [
        4
      ],
      "matrix": [
        0.53042999999999996,
        0.84593000000000007,
        -0.05519000000000001,
        0,
        -0.65654000000000012,
        0.45111000000000001,
        0.60452000000000006,
        0,
        0.53627999999999998,
        -0.28442000000000006,
        0.7946700000000001,
        0,
        4.0762500000000008,
        -2.3349599999999997,
        6.8765099999999997,
        1
      ],
      "name": "Lamp"
    },
    {
      "name": "Lamp"
    },
    {
      "children": [
        6
      ],
      "matrix": [
        0,
        -0.37439000000000006,
        0,
        0,
        0.37439000000000006,
        0,
        0,
        0,
        0,
        0,
        0.028870000000000003,
        0,
        0,
        0,
        3.2124599999999996,
        1
      ],
      "name": "Cube"
    },
    {
      "mesh": 0,
      "name": "Cube"
    },
    {
      "children": [
        8
      ],
      "matrix": [
        -0.078300000000000008,
        0.84593000000000007,
        -0.52750999999999992,
        0,
        0.63262000000000018,
        0.45111000000000001,
        0.62952000000000008,
        0,
        0.77049999999999996,
        -0.28442000000000006,
        -0.57047000000000003,
        0,
        2.29975,
        1.6570800000000001,
        1.46221,
        1
      ],
      "name": "Lamp.001"
    },
    {
      "name": "Lamp.001"
    }
  ],
  "scene": 0,
  "scenes": [
    {
      "name": "OSG_Scene",
      "nodes": [
        0
      ]
    }
  ]
}

